<svg width="128" height="128" viewBox="0 0 128 128" fill="none" xmlns="http://www.w3.org/2000/svg">
<g clip-path="url(#clip0_4630_375)">
<path d="M101.988 19.7829C96.2491 16.5015 60.9519 73.1062 54.1927 70.5089C47.9275 68.1036 64.8774 18.2228 64.9424 18C64.9424 18 -0.44615 61.879 0.00229614 84.2028C0.405247 104.129 32.3099 110 32.3099 110C9.24418 83.3498 37.3857 66.851 47.7389 57.5219C48.0297 57.26 48.9091 57.1902 48.6749 57.5219C48.0942 58.3442 31.062 94.6692 44.7688 101.078C55.6096 106.15 82.7373 69.0949 88.4695 58.2904C88.6597 57.9318 89.5447 57.9111 89.3859 58.2904C80.8849 78.593 74.2883 94.2235 77.3429 102.385C78.7467 106.142 82.0353 106.78 86.9617 106.181C98.0575 104.821 115.024 93.3759 126.508 84.056C129.075 81.9722 127.016 79.1113 124.004 80.4753C112.613 85.6332 97.6457 90.9666 92.72 86.1163C87.3647 80.8524 106.427 22.3264 101.988 19.7829Z" fill="#22E523"/>
</g>
<defs>
<clipPath id="clip0_4630_375">
<rect width="128" height="128" fill="white"/>
</clipPath>
</defs>
</svg>
