<svg width="48" height="48" viewBox="0 0 48 48" fill="none" xmlns="http://www.w3.org/2000/svg">
<path d="M7.45419 20C6.98486 20 6.62552 19.8754 6.37619 19.626C6.12686 19.3767 6.00219 19.032 6.00219 18.592C6.00219 18.1374 6.12686 17.7927 6.37619 17.558C6.62552 17.3234 6.98486 17.206 7.45419 17.206H9.67619V7.28405H11.2822L8.07019 9.24205C7.73286 9.44738 7.41752 9.52805 7.12419 9.48405C6.84552 9.44005 6.60352 9.31538 6.39819 9.11005C6.19286 8.90471 6.05352 8.66271 5.98019 8.38405C5.92152 8.09071 5.95086 7.80471 6.06819 7.52605C6.18552 7.23271 6.40552 6.98338 6.72819 6.77805L9.78619 4.93005C10.0942 4.73938 10.4022 4.58538 10.7102 4.46805C11.0329 4.35071 11.3482 4.29205 11.6562 4.29205C12.0962 4.29205 12.4409 4.40938 12.6902 4.64405C12.9542 4.86405 13.0862 5.20871 13.0862 5.67805V17.206H15.0882C15.5429 17.206 15.8949 17.3234 16.1442 17.558C16.3935 17.7927 16.5182 18.1374 16.5182 18.592C16.5182 19.0467 16.3935 19.3987 16.1442 19.648C15.8949 19.8827 15.5429 20 15.0882 20H7.45419Z" fill="white"/>
<path d="M23.5716 20.242C21.6943 20.242 20.2569 19.5454 19.2596 18.152C18.2769 16.744 17.7856 14.7567 17.7856 12.19C17.7856 10.474 18.0056 9.02938 18.4456 7.85605C18.9003 6.66805 19.5529 5.77338 20.4036 5.17205C21.2689 4.55605 22.3249 4.24805 23.5716 4.24805C25.4636 4.24805 26.9009 4.93005 27.8836 6.29405C28.8663 7.64338 29.3576 9.60871 29.3576 12.19C29.3576 13.906 29.1303 15.3654 28.6756 16.568C28.2356 17.756 27.5903 18.6654 26.7396 19.296C25.8889 19.9267 24.8329 20.242 23.5716 20.242ZM23.5716 17.47C24.4223 17.47 25.0529 17.052 25.4636 16.216C25.8743 15.3654 26.0796 14.0234 26.0796 12.19C26.0796 10.3567 25.8743 9.03671 25.4636 8.23005C25.0529 7.42338 24.4223 7.02005 23.5716 7.02005C22.7209 7.02005 22.0903 7.42338 21.6796 8.23005C21.2689 9.03671 21.0636 10.3567 21.0636 12.19C21.0636 14.0234 21.2689 15.3654 21.6796 16.216C22.0903 17.052 22.7209 17.47 23.5716 17.47Z" fill="white"/>
<path d="M32.979 20C32.4363 20 32.033 19.8754 31.769 19.626C31.5197 19.362 31.395 18.9807 31.395 18.482C31.395 18.1594 31.4757 17.8587 31.637 17.58C31.7983 17.3014 32.0183 17.0154 32.297 16.722L36.433 12.366C37.049 11.706 37.489 11.1194 37.753 10.606C38.0317 10.0927 38.171 9.57938 38.171 9.06605C38.171 8.42071 37.9583 7.92938 37.533 7.59205C37.1223 7.25471 36.521 7.08605 35.729 7.08605C35.3037 7.08605 34.8637 7.15205 34.409 7.28405C33.969 7.40138 33.507 7.59938 33.023 7.87805C32.7003 8.05405 32.3997 8.12005 32.121 8.07605C31.857 8.01738 31.6297 7.89271 31.439 7.70205C31.2483 7.49671 31.1237 7.25471 31.065 6.97605C31.0063 6.69738 31.0357 6.41871 31.153 6.14005C31.2703 5.86138 31.4903 5.62671 31.813 5.43605C32.4583 5.04005 33.1623 4.74671 33.925 4.55605C34.6877 4.35071 35.443 4.24805 36.191 4.24805C37.3497 4.24805 38.325 4.42405 39.117 4.77605C39.909 5.11338 40.5103 5.61205 40.921 6.27205C41.3317 6.93205 41.537 7.73871 41.537 8.69205C41.537 9.30805 41.4417 9.90938 41.251 10.496C41.0603 11.0827 40.7597 11.6767 40.349 12.278C39.953 12.8647 39.425 13.4954 38.765 14.17L34.915 18.086V17.206H40.877C41.3463 17.206 41.6983 17.3234 41.933 17.558C42.1823 17.7927 42.307 18.1374 42.307 18.592C42.307 19.0467 42.1823 19.3987 41.933 19.648C41.6983 19.8827 41.3463 20 40.877 20H32.979Z" fill="white"/>
<path d="M7.87419 42.234C7.21552 42.234 6.71286 42.052 6.36619 41.688C6.01952 41.324 5.84619 40.8127 5.84619 40.154V25.776C5.84619 25.1 6.02819 24.58 6.39219 24.216C6.75619 23.852 7.27619 23.67 7.95219 23.67H20.1462C20.8222 23.67 21.3422 23.852 21.7062 24.216C22.0702 24.58 22.2522 25.1 22.2522 25.776V40.154C22.2522 40.8127 22.0789 41.324 21.7322 41.688C21.3855 42.052 20.8915 42.234 20.2502 42.234C19.5915 42.234 19.0889 42.052 18.7422 41.688C18.3955 41.324 18.2222 40.8127 18.2222 40.154V26.998H9.87619V40.154C9.87619 40.8127 9.70286 41.324 9.35619 41.688C9.02686 42.052 8.53286 42.234 7.87419 42.234Z" fill="white"/>
<path d="M27.9582 42.234C27.2995 42.234 26.7968 42.052 26.4502 41.688C26.1035 41.324 25.9302 40.8127 25.9302 40.154V25.776C25.9302 25.1 26.1122 24.58 26.4762 24.216C26.8402 23.852 27.3602 23.67 28.0362 23.67H40.2302C40.9062 23.67 41.4262 23.852 41.7902 24.216C42.1542 24.58 42.3362 25.1 42.3362 25.776V40.154C42.3362 40.8127 42.1628 41.324 41.8162 41.688C41.4695 42.052 40.9755 42.234 40.3342 42.234C39.6755 42.234 39.1728 42.052 38.8262 41.688C38.4795 41.324 38.3062 40.8127 38.3062 40.154V26.998H29.9602V40.154C29.9602 40.8127 29.7868 41.324 29.4402 41.688C29.1108 42.052 28.6168 42.234 27.9582 42.234Z" fill="white"/>
</svg>
