<svg width="20" height="20" viewBox="0 0 20 20" fill="none" xmlns="http://www.w3.org/2000/svg">
<path fill-rule="evenodd" clip-rule="evenodd" d="M7.09333 3.69167C7.21923 3.584 7.38272 3.53072 7.54789 3.54353C7.71305 3.55634 7.86638 3.63421 7.97416 3.76001L12.9742 9.59334C13.0712 9.70661 13.1246 9.85085 13.1246 10C13.1246 10.1492 13.0712 10.2934 12.9742 10.4067L7.97416 16.24C7.86459 16.3597 7.71279 16.432 7.55084 16.4418C7.3889 16.4515 7.2295 16.3979 7.10635 16.2923C6.9832 16.1867 6.90594 16.0373 6.89092 15.8758C6.87589 15.7143 6.92427 15.5532 7.02583 15.4267L11.6767 10L7.02583 4.57334C6.91796 4.44765 6.86439 4.28429 6.87689 4.11913C6.88939 3.95397 6.96694 3.80053 7.0925 3.69251" fill="black"/>
</svg>
