<svg width="20" height="20" viewBox="0 0 20 20" fill="none" xmlns="http://www.w3.org/2000/svg">
<path fill-rule="evenodd" clip-rule="evenodd" d="M12.9067 3.69168C12.969 3.74512 13.0202 3.81032 13.0574 3.88356C13.0945 3.9568 13.1169 4.03665 13.1231 4.11853C13.1294 4.20041 13.1195 4.28272 13.0939 4.36076C13.0684 4.4388 13.0277 4.51104 12.9742 4.57335L8.32334 10L12.9742 15.4267C13.0308 15.4885 13.0743 15.561 13.1023 15.64C13.1303 15.719 13.1421 15.8028 13.1371 15.8864C13.1321 15.97 13.1103 16.0518 13.073 16.1268C13.0357 16.2019 12.9837 16.2686 12.9201 16.3232C12.8565 16.3777 12.7826 16.4189 12.7028 16.4443C12.6229 16.4698 12.5388 16.4789 12.4554 16.4711C12.3719 16.4633 12.2909 16.4389 12.2171 16.3992C12.1433 16.3595 12.0783 16.3054 12.0258 16.24L7.02584 10.4067C6.92879 10.2934 6.87544 10.1492 6.87544 10C6.87544 9.85085 6.92879 9.70661 7.02584 9.59335L12.0258 3.76001C12.1337 3.63433 12.2871 3.55663 12.4523 3.54397C12.6174 3.53132 12.7809 3.58474 12.9067 3.69251" fill="black"/>
</svg>
