<svg width="20" height="20" viewBox="0 0 20 20" fill="none" xmlns="http://www.w3.org/2000/svg">
<path fill-rule="evenodd" clip-rule="evenodd" d="M17.2917 5.83333C17.2917 5.99909 17.2258 6.15806 17.1086 6.27527C16.9914 6.39248 16.8324 6.45833 16.6667 6.45833H3.33333C3.16757 6.45833 3.0086 6.39248 2.89139 6.27527C2.77418 6.15806 2.70833 5.99909 2.70833 5.83333C2.70833 5.66757 2.77418 5.5086 2.89139 5.39139C3.0086 5.27418 3.16757 5.20833 3.33333 5.20833H16.6667C16.8324 5.20833 16.9914 5.27418 17.1086 5.39139C17.2258 5.5086 17.2917 5.66757 17.2917 5.83333ZM17.2917 9.99999C17.2917 10.1658 17.2258 10.3247 17.1086 10.4419C16.9914 10.5591 16.8324 10.625 16.6667 10.625H3.33333C3.16757 10.625 3.0086 10.5591 2.89139 10.4419C2.77418 10.3247 2.70833 10.1658 2.70833 9.99999C2.70833 9.83423 2.77418 9.67526 2.89139 9.55805C3.0086 9.44084 3.16757 9.37499 3.33333 9.37499H16.6667C16.8324 9.37499 16.9914 9.44084 17.1086 9.55805C17.2258 9.67526 17.2917 9.83423 17.2917 9.99999ZM17.2917 14.1667C17.2917 14.3324 17.2258 14.4914 17.1086 14.6086C16.9914 14.7258 16.8324 14.7917 16.6667 14.7917H3.33333C3.16757 14.7917 3.0086 14.7258 2.89139 14.6086C2.77418 14.4914 2.70833 14.3324 2.70833 14.1667C2.70833 14.0009 2.77418 13.8419 2.89139 13.7247C3.0086 13.6075 3.16757 13.5417 3.33333 13.5417H16.6667C16.8324 13.5417 16.9914 13.6075 17.1086 13.7247C17.2258 13.8419 17.2917 14.0009 17.2917 14.1667Z" fill="black"/>
</svg>
