<svg width="24" height="24" viewBox="0 0 24 24" fill="none" xmlns="http://www.w3.org/2000/svg">
<path d="M14.0922 10.75L13.3422 13.25H9.9082L10.6582 10.75H14.0922Z" fill="#3D3D3E"/>
<path fill-rule="evenodd" clip-rule="evenodd" d="M3.464 3.464C2 4.93 2 7.286 2 12C2 16.714 2 19.071 3.464 20.535C4.93 22 7.286 22 12 22C16.714 22 19.071 22 20.535 20.535C22 19.072 22 16.714 22 12C22 7.286 22 4.929 20.535 3.464C19.072 2 16.714 2 12 2C7.286 2 4.929 2 3.464 3.464ZM11.216 6.282C11.4064 6.33934 11.5662 6.46993 11.6604 6.64507C11.7545 6.82022 11.7752 7.02557 11.718 7.216L11.108 9.25H14.542L15.282 6.785C15.3445 6.60115 15.4758 6.44869 15.6483 6.35969C15.8209 6.27068 16.0213 6.25207 16.2073 6.30777C16.3933 6.36347 16.5504 6.48914 16.6457 6.65834C16.7409 6.82754 16.7669 7.02708 16.718 7.215L16.108 9.25H18C18.1989 9.25 18.3897 9.32902 18.5303 9.46967C18.671 9.61032 18.75 9.80109 18.75 10C18.75 10.1989 18.671 10.3897 18.5303 10.5303C18.3897 10.671 18.1989 10.75 18 10.75H15.658L14.908 13.25H17C17.1989 13.25 17.3897 13.329 17.5303 13.4697C17.671 13.6103 17.75 13.8011 17.75 14C17.75 14.1989 17.671 14.3897 17.5303 14.5303C17.3897 14.671 17.1989 14.75 17 14.75H14.458L13.718 17.215C13.6555 17.3988 13.5242 17.5513 13.3517 17.6403C13.1791 17.7293 12.9787 17.7479 12.7927 17.6922C12.6067 17.6365 12.4496 17.5109 12.3543 17.3417C12.2591 17.1725 12.2331 16.9729 12.282 16.785L12.892 14.75H9.458L8.718 17.215C8.69263 17.3126 8.64786 17.404 8.58636 17.4839C8.52486 17.5637 8.44789 17.6304 8.36005 17.6798C8.27222 17.7293 8.17532 17.7605 8.07514 17.7716C7.97496 17.7828 7.87356 17.7736 7.777 17.7447C7.68043 17.7158 7.59069 17.6677 7.51313 17.6034C7.43557 17.539 7.37178 17.4596 7.32557 17.37C7.27937 17.2805 7.2517 17.1825 7.24421 17.082C7.23672 16.9814 7.24958 16.8804 7.282 16.785L7.892 14.75H6C5.80109 14.75 5.61032 14.671 5.46967 14.5303C5.32902 14.3897 5.25 14.1989 5.25 14C5.25 13.8011 5.32902 13.6103 5.46967 13.4697C5.61032 13.329 5.80109 13.25 6 13.25H8.342L9.092 10.75H7C6.80109 10.75 6.61032 10.671 6.46967 10.5303C6.32902 10.3897 6.25 10.1989 6.25 10C6.25 9.80109 6.32902 9.61032 6.46967 9.46967C6.61032 9.32902 6.80109 9.25 7 9.25H9.542L10.282 6.785C10.3103 6.69064 10.3569 6.60277 10.4191 6.52642C10.4814 6.45007 10.5581 6.38673 10.6448 6.34002C10.7315 6.29331 10.8266 6.26414 10.9246 6.25419C11.0226 6.24423 11.1216 6.25368 11.216 6.282Z" fill="#3D3D3E"/>
</svg>
