<svg width="20" height="20" viewBox="0 0 20 20" fill="none" xmlns="http://www.w3.org/2000/svg">
<path d="M14.999 4.37598C15.1648 4.37598 15.3242 4.44138 15.4414 4.55859C15.5001 4.6173 15.546 4.68645 15.5771 4.76172C15.608 4.83659 15.624 4.91744 15.624 5C15.624 5.16563 15.5584 5.32422 15.4414 5.44141L10.8828 10L15.4414 14.5586C15.5583 14.6757 15.6239 14.8346 15.624 15C15.624 15.0411 15.6202 15.0823 15.6123 15.1221C15.5884 15.2424 15.5294 15.3544 15.4414 15.4424C15.3244 15.5594 15.1654 15.6238 15 15.624C14.8344 15.624 14.6748 15.5594 14.5576 15.4424L9.99902 10.8838L5.44141 15.4424C5.32422 15.5594 5.16465 15.624 4.99902 15.624C4.83362 15.6238 4.6746 15.5594 4.55762 15.4424C4.46959 15.3544 4.41067 15.2424 4.38672 15.1221C4.37885 15.0823 4.375 15.0411 4.375 15C4.37515 14.8346 4.4407 14.6757 4.55762 14.5586L9.11523 10L4.55762 5.44141C4.44058 5.32422 4.375 5.16563 4.375 5C4.375 4.91744 4.39099 4.83659 4.42188 4.76172C4.45299 4.68645 4.49891 4.6173 4.55762 4.55859C4.67483 4.44138 4.83424 4.37598 5 4.37598C5.16527 4.37623 5.32347 4.44178 5.44043 4.55859L9.99902 9.11719L14.5586 4.55859C14.6756 4.44178 14.8338 4.37623 14.999 4.37598Z" fill="black"/>
</svg>
