<svg width="24" height="24" viewBox="0 0 24 24" fill="none" xmlns="http://www.w3.org/2000/svg">
<path d="M3.464 3.464C4.93 2 7.286 2 12 2C13.023 2 13.934 2 14.75 2.015C14.754 2.585 14.973 3.155 15.409 3.591L16.568 4.75H14C11.383 4.75 9.748 6.048 9.086 6.713L8.9 6.9L8.713 7.086C8.048 7.748 6.75 9.383 6.75 12V15C6.75 15.5967 6.98705 16.169 7.40901 16.591C7.83097 17.0129 8.40326 17.25 9 17.25C9.59674 17.25 10.169 17.0129 10.591 16.591C11.0129 16.169 11.25 15.5967 11.25 15V12C11.25 10.98 11.738 10.424 11.887 10.275L12.079 10.085L12.275 9.887C12.424 9.738 12.98 9.25 14 9.25H16.568L15.409 10.409C14.987 10.831 14.75 11.4033 14.75 12C14.75 12.5967 14.987 13.169 15.409 13.591C15.831 14.013 16.4033 14.25 17 14.25C17.5967 14.25 18.169 14.013 18.591 13.591L21.996 10.186C21.9993 10.748 22.0007 11.3527 22 12C22 16.714 22 19.071 20.535 20.535C19.072 22 16.714 22 12 22C7.286 22 4.929 22 3.464 20.535C2 19.072 2 16.714 2 12C2 7.286 2 4.929 3.464 3.464Z" fill="#757575"/>
<path fill-rule="evenodd" clip-rule="evenodd" d="M16.47 1.46983C16.6106 1.32938 16.8012 1.25049 17 1.25049C17.1988 1.25049 17.3894 1.32938 17.53 1.46983L22.53 6.46983C22.6705 6.61045 22.7493 6.80108 22.7493 6.99983C22.7493 7.19858 22.6705 7.3892 22.53 7.52983L17.53 12.5298C17.4613 12.6035 17.3785 12.6626 17.2865 12.7036C17.1945 12.7446 17.0952 12.7666 16.9945 12.7684C16.8938 12.7702 16.7938 12.7517 16.7004 12.714C16.607 12.6762 16.5222 12.6201 16.451 12.5489C16.3797 12.4776 16.3236 12.3928 16.2859 12.2994C16.2482 12.206 16.2296 12.106 16.2314 12.0053C16.2332 11.9046 16.2552 11.8053 16.2962 11.7133C16.3372 11.6213 16.3963 11.5385 16.47 11.4698L20.19 7.74983H14C12.448 7.74983 11.533 8.50683 11.212 8.82983L11.022 9.02083L10.829 9.21183C10.507 9.53183 9.75 10.4478 9.75 11.9998V14.9998C9.75 15.1987 9.67098 15.3895 9.53033 15.5302C9.38968 15.6708 9.19891 15.7498 9 15.7498C8.80109 15.7498 8.61032 15.6708 8.46967 15.5302C8.32902 15.3895 8.25 15.1987 8.25 14.9998V11.9998C8.25 9.91583 9.277 8.63983 9.771 8.14883L9.961 7.95983L10.149 7.77083C10.64 7.27683 11.916 6.24983 14 6.24983H20.19L16.47 2.52983C16.3295 2.3892 16.2507 2.19858 16.2507 1.99983C16.2507 1.80108 16.3295 1.61045 16.47 1.46983Z" fill="#757575"/>
</svg>
