<svg width="48" height="48" viewBox="0 0 48 48" fill="none" xmlns="http://www.w3.org/2000/svg">
<path d="M14.852 36H40C39.994 37.86 39.956 39.246 39.774 40.34C39.554 41.646 39.154 42.336 38.542 42.828C37.928 43.32 37.068 43.642 35.442 43.816C33.768 43.996 31.55 44 28.37 44H19.51C16.33 44 14.11 43.998 12.438 43.816C10.812 43.642 9.95196 43.32 9.33796 42.828C8.72396 42.336 8.32596 41.646 8.10596 40.342L8.06196 40.04C7.98196 39.458 7.94196 39.166 8.19396 38.48C8.44796 37.792 8.55596 37.686 8.77596 37.47C9.48904 36.791 10.3803 36.3284 11.346 36.136C11.926 36.012 12.686 36 14.852 36Z" fill="white"/>
<path opacity="0.5" d="M9.454 5.466C10.066 4.85 10.922 4.45 12.542 4.23C14.21 4.004 16.418 4 19.586 4H28.414C31.582 4 33.79 4.004 35.458 4.23C37.078 4.45 37.934 4.85 38.546 5.466C39.156 6.082 39.554 6.946 39.772 8.58C39.996 10.26 40 12.49 40 15.684V36H14.852C12.684 36 11.928 36.012 11.346 36.136C10.32 36.356 9.426 36.83 8.776 37.47C8.556 37.686 8.448 37.792 8.194 38.48C8.07396 38.7723 8.00822 39.0841 8 39.4V15.684C8 12.49 8.004 10.262 8.228 8.58C8.446 6.948 8.844 6.082 9.454 5.466Z" fill="white"/>
<path d="M14.5 14C14.5 13.6022 14.658 13.2206 14.9393 12.9393C15.2206 12.658 15.6022 12.5 16 12.5H32C32.3978 12.5 32.7794 12.658 33.0607 12.9393C33.342 13.2206 33.5 13.6022 33.5 14C33.5 14.3978 33.342 14.7794 33.0607 15.0607C32.7794 15.342 32.3978 15.5 32 15.5H16C15.6022 15.5 15.2206 15.342 14.9393 15.0607C14.658 14.7794 14.5 14.3978 14.5 14ZM16 19.5C15.6022 19.5 15.2206 19.658 14.9393 19.9393C14.658 20.2206 14.5 20.6022 14.5 21C14.5 21.3978 14.658 21.7794 14.9393 22.0607C15.2206 22.342 15.6022 22.5 16 22.5H26C26.3978 22.5 26.7794 22.342 27.0607 22.0607C27.342 21.7794 27.5 21.3978 27.5 21C27.5 20.6022 27.342 20.2206 27.0607 19.9393C26.7794 19.658 26.3978 19.5 26 19.5H16Z" fill="white"/>
</svg>
