<svg width="48" height="48" viewBox="0 0 48 48" fill="none" xmlns="http://www.w3.org/2000/svg">
<path opacity="0.4" d="M30 18C33.3137 18 36 15.3137 36 12C36 8.68629 33.3137 6 30 6C26.6863 6 24 8.68629 24 12C24 15.3137 26.6863 18 30 18Z" fill="white"/>
<path opacity="0.4" d="M32 40C37.5228 40 42 37.3137 42 34C42 30.6863 37.5228 28 32 28C26.4772 28 22 30.6863 22 34C22 37.3137 26.4772 40 32 40Z" fill="white"/>
<path d="M18.002 20C22.4202 20 26.002 16.4183 26.002 12C26.002 7.58172 22.4202 4 18.002 4C13.5837 4 10.002 7.58172 10.002 12C10.002 16.4183 13.5837 20 18.002 20Z" fill="white"/>
<path d="M18.002 42.002C25.7339 42.002 32.002 38.4202 32.002 34.002C32.002 29.5837 25.7339 26.002 18.002 26.002C10.27 26.002 4.00195 29.5837 4.00195 34.002C4.00195 38.4202 10.27 42.002 18.002 42.002Z" fill="white"/>
</svg>
