<svg width="48" height="48" viewBox="0 0 48 48" fill="none" xmlns="http://www.w3.org/2000/svg">
<path d="M40.5399 16.97L41.9499 25.13C42.0327 25.6083 42.0099 26.0988 41.8833 26.5674C41.7566 27.036 41.5291 27.4712 41.2167 27.8427C40.9043 28.2141 40.5145 28.5128 40.0746 28.7179C39.6347 28.923 39.1553 29.0295 38.6699 29.03H28.3079C28.0661 29.0299 27.8272 29.0825 27.6077 29.1841C27.3882 29.2857 27.1935 29.4339 27.0371 29.6183C26.8807 29.8027 26.7663 30.0189 26.7018 30.252C26.6374 30.4851 26.6244 30.7294 26.6639 30.968L27.9899 39.058C28.2044 40.3722 28.1431 41.7167 27.8099 43.006C27.5319 44.072 26.7099 44.93 25.6259 45.278L25.3359 45.372C24.6799 45.582 23.9659 45.532 23.3479 45.236C23.0156 45.079 22.7217 44.8512 22.4868 44.5686C22.2519 44.2859 22.0816 43.9554 21.9879 43.6L21.0359 39.932C20.7333 38.7646 20.2929 37.6373 19.7239 36.574C18.8939 35.02 17.6099 33.774 16.2739 32.624L13.3959 30.144C12.9967 29.799 12.6848 29.3643 12.486 28.8755C12.2871 28.3867 12.2069 27.8578 12.2519 27.332L13.8759 8.546C13.9475 7.71518 14.328 6.9414 14.9423 6.37746C15.5566 5.81352 16.36 5.50043 17.1939 5.5H26.4899C33.4539 5.5 39.3959 10.352 40.5399 16.97Z" fill="white"/>
<path fill-rule="evenodd" clip-rule="evenodd" d="M5.93616 30.5304C6.32268 30.5473 6.70078 30.4142 6.99148 30.159C7.28218 29.9037 7.46299 29.5459 7.49616 29.1604L9.43616 6.68845C9.46902 6.35381 9.43332 6.01598 9.33124 5.69559C9.22916 5.37521 9.06284 5.079 8.84244 4.82505C8.62204 4.5711 8.35219 4.36475 8.04936 4.21859C7.74654 4.07243 7.4171 3.98954 7.08116 3.97498C6.74522 3.96041 6.40984 4.01448 6.0955 4.13388C5.78117 4.25328 5.49446 4.43551 5.25291 4.66943C5.01136 4.90335 4.82003 5.18405 4.69061 5.4944C4.56118 5.80475 4.49638 6.13822 4.50016 6.47445V29.0324C4.4998 29.4194 4.64902 29.7916 4.91663 30.0711C5.18424 30.3506 5.54953 30.5139 5.93616 30.5304Z" fill="white"/>
</svg>
