<svg width="48" height="48" viewBox="0 0 48 48" fill="none" xmlns="http://www.w3.org/2000/svg">
<path d="M40.5399 32.5304L41.9499 24.3704C42.0327 23.8921 42.0099 23.4016 41.8833 22.933C41.7566 22.4644 41.5291 22.0292 41.2167 21.6578C40.9043 21.2863 40.5145 20.9876 40.0746 20.7825C39.6347 20.5774 39.1553 20.4709 38.6699 20.4704H28.3079C28.0661 20.4705 27.8272 20.4179 27.6077 20.3163C27.3882 20.2147 27.1935 20.0665 27.0371 19.8821C26.8807 19.6977 26.7663 19.4815 26.7018 19.2484C26.6374 19.0153 26.6244 18.771 26.6639 18.5324L27.9899 10.4424C28.2041 9.12881 28.1428 7.78504 27.8099 6.4964C27.6662 5.96442 27.3908 5.47721 27.0091 5.07977C26.6274 4.68233 26.1517 4.38747 25.6259 4.2224L25.3359 4.1284C24.6801 3.9186 23.969 3.96725 23.3479 4.2644C22.6679 4.5924 22.1719 5.1904 21.9879 5.9004L21.0359 9.5684C20.7333 10.7358 20.2929 11.8631 19.7239 12.9264C18.8939 14.4804 17.6099 15.7264 16.2739 16.8764L13.3959 19.3564C12.9967 19.7014 12.6848 20.1361 12.486 20.6249C12.2871 21.1137 12.2069 21.6426 12.2519 22.1684L13.8759 40.9544C13.9475 41.7852 14.328 42.559 14.9423 43.1229C15.5566 43.6869 16.36 44 17.1939 44.0004H26.4899C33.4539 44.0004 39.3959 39.1484 40.5399 32.5304Z" fill="white"/>
<path fill-rule="evenodd" clip-rule="evenodd" d="M5.93616 18.9702C6.32268 18.9533 6.70078 19.0864 6.99148 19.3417C7.28218 19.597 7.46299 19.9547 7.49616 20.3402L9.43616 42.8122C9.46902 43.1468 9.43332 43.4847 9.33124 43.805C9.22916 44.1254 9.06284 44.4216 8.84244 44.6756C8.62204 44.9295 8.35219 45.1359 8.04936 45.282C7.74654 45.4282 7.4171 45.5111 7.08116 45.5257C6.74522 45.5402 6.40984 45.4861 6.0955 45.3667C5.78117 45.2473 5.49446 45.0651 5.25291 44.8312C5.01136 44.5973 4.82003 44.3166 4.69061 44.0062C4.56118 43.6959 4.49638 43.3624 4.50016 43.0262V20.4682C4.50032 20.0815 4.64977 19.7099 4.91732 19.4308C5.18488 19.1517 5.54987 18.9867 5.93616 18.9702Z" fill="white"/>
</svg>
