<svg width="24" height="24" viewBox="0 0 24 24" fill="none" xmlns="http://www.w3.org/2000/svg">
<path fill-rule="evenodd" clip-rule="evenodd" d="M6 8.107C6 4.734 8.686 2 12 2C15.314 2 18 4.734 18 8.107C18 11.454 16.085 15.359 13.097 16.756C12.7536 16.9166 12.3791 16.9998 12 16.9998C11.6209 16.9998 11.2464 16.9166 10.903 16.756C7.915 15.359 6 11.454 6 8.107ZM12 10C12.5304 10 13.0391 9.78929 13.4142 9.41421C13.7893 9.03914 14 8.53043 14 8C14 7.46957 13.7893 6.96086 13.4142 6.58579C13.0391 6.21071 12.5304 6 12 6C11.4696 6 10.9609 6.21071 10.5858 6.58579C10.2107 6.96086 10 7.46957 10 8C10 8.53043 10.2107 9.03914 10.5858 9.41421C10.9609 9.78929 11.4696 10 12 10ZM3.627 14.534C3.68823 14.6112 3.73365 14.6997 3.76065 14.7945C3.78766 14.8892 3.79573 14.9884 3.7844 15.0863C3.77307 15.1842 3.74256 15.2789 3.69462 15.3649C3.64668 15.451 3.58225 15.5268 3.505 15.588C2.932 16.042 2.75 16.443 2.75 16.75C2.75 16.993 2.86 17.288 3.19 17.63C3.524 17.975 4.046 18.325 4.756 18.647C6.01 19.216 7.744 19.647 9.75 19.834V19.375C9.75006 19.2309 9.79162 19.0899 9.8697 18.9688C9.94779 18.8478 10.0591 18.7517 10.1903 18.6923C10.3215 18.6328 10.4671 18.6123 10.6096 18.6334C10.7522 18.6544 10.8856 18.7161 10.994 18.811L12.494 20.123C12.5745 20.1934 12.639 20.2802 12.6832 20.3775C12.7273 20.4749 12.7502 20.5806 12.7502 20.6875C12.7502 20.7944 12.7273 20.9001 12.6832 20.9975C12.639 21.0948 12.5745 21.1816 12.494 21.252L10.994 22.565C10.8855 22.66 10.752 22.7216 10.6094 22.7427C10.4668 22.7637 10.3211 22.7432 10.1899 22.6835C10.0586 22.6239 9.94731 22.5278 9.8693 22.4065C9.79129 22.2853 9.74987 22.1442 9.75 22V21.34C7.565 21.149 5.61 20.681 4.136 20.013C3.322 19.644 2.621 19.198 2.112 18.673C1.601 18.143 1.25 17.494 1.25 16.75C1.25 15.8 1.817 15.012 2.574 14.412C2.72986 14.2887 2.92831 14.2322 3.12575 14.2551C3.32319 14.278 3.50347 14.3783 3.627 14.534ZM20.373 14.534C20.4965 14.3783 20.6768 14.278 20.8743 14.2551C21.0717 14.2322 21.2701 14.2887 21.426 14.412C22.183 15.012 22.75 15.8 22.75 16.75C22.75 18.128 21.582 19.16 20.203 19.851C18.762 20.574 16.791 21.085 14.576 21.31C14.378 21.3302 14.1801 21.2708 14.0259 21.1451C13.8716 21.0194 13.7737 20.8375 13.7535 20.6395C13.7333 20.4415 13.7927 20.2436 13.9184 20.0894C14.0441 19.9351 14.226 19.8372 14.424 19.817C16.522 19.605 18.301 19.127 19.531 18.51C20.825 17.862 21.25 17.207 21.25 16.75C21.25 16.443 21.068 16.042 20.495 15.588C20.4178 15.5268 20.3533 15.451 20.3054 15.3649C20.2574 15.2789 20.2269 15.1842 20.2156 15.0863C20.2043 14.9884 20.2123 14.8892 20.2393 14.7945C20.2664 14.6997 20.3118 14.6112 20.373 14.534Z" fill="black"/>
</svg>
