<svg width="48" height="48" viewBox="0 0 48 48" fill="none" xmlns="http://www.w3.org/2000/svg">
<path d="M13.92 4C14.756 4 15.432 4.62 15.432 5.384V8.18C16.772 8.156 18.276 8.156 19.968 8.156H28.032C29.724 8.156 31.226 8.156 32.568 8.18V5.384C32.568 4.62 33.244 4 34.08 4C34.916 4 35.592 4.62 35.592 5.384V8.3C38.492 8.512 40.398 9.036 41.798 10.316C43.198 11.598 43.768 13.342 44 16V18H4V16C4.232 13.342 4.802 11.6 6.202 10.316C7.602 9.036 9.506 8.512 12.408 8.3V5.384C12.408 4.62 13.086 4 13.92 4Z" fill="white"/>
<path opacity="0.5" d="M44 28V24C44 22.322 43.974 19.33 43.948 18H4.01204C3.98604 19.33 4.01204 22.322 4.01204 24V28C4.01204 35.542 4.01204 39.314 6.35204 41.656C8.69804 44 12.468 44 20.008 44H28.008C35.548 44 39.316 44 41.66 41.656C44.004 39.312 44 35.542 44 28Z" fill="white"/>
<path fill-rule="evenodd" clip-rule="evenodd" d="M28 24.5C27.0717 24.5 26.1815 24.8687 25.5251 25.5251C24.8687 26.1815 24.5 27.0717 24.5 28V32C24.5 32.9283 24.8687 33.8185 25.5251 34.4749C26.1815 35.1312 27.0717 35.5 28 35.5C28.9283 35.5 29.8185 35.1312 30.4749 34.4749C31.1313 33.8185 31.5 32.9283 31.5 32V28C31.5 27.0717 31.1313 26.1815 30.4749 25.5251C29.8185 24.8687 28.9283 24.5 28 24.5ZM28 27.5C27.8674 27.5 27.7402 27.5527 27.6464 27.6464C27.5527 27.7402 27.5 27.8674 27.5 28V32C27.5 32.1326 27.5527 32.2598 27.6464 32.3536C27.7402 32.4473 27.8674 32.5 28 32.5C28.1326 32.5 28.2598 32.4473 28.3536 32.3536C28.4473 32.2598 28.5 32.1326 28.5 32V28C28.5 27.8674 28.4473 27.7402 28.3536 27.6464C28.2598 27.5527 28.1326 27.5 28 27.5Z" fill="white"/>
<path d="M22.5002 26.0006C22.4999 25.7042 22.4118 25.4144 22.247 25.168C22.0821 24.9215 21.848 24.7295 21.574 24.6161C21.3001 24.5026 20.9987 24.4729 20.7079 24.5307C20.4171 24.5885 20.15 24.7311 19.9402 24.9406L16.9402 27.9406C16.6752 28.225 16.531 28.6011 16.5378 28.9897C16.5447 29.3783 16.7021 29.7491 16.9769 30.0239C17.2518 30.2987 17.6225 30.4561 18.0111 30.463C18.3997 30.4698 18.7758 30.3256 19.0602 30.0606L19.5002 29.6206V34.0006C19.5002 34.3985 19.6582 34.78 19.9395 35.0613C20.2208 35.3426 20.6024 35.5006 21.0002 35.5006C21.398 35.5006 21.7795 35.3426 22.0608 35.0613C22.3421 34.78 22.5002 34.3985 22.5002 34.0006V26.0006Z" fill="white"/>
</svg>
