<?xml version="1.0" encoding="UTF-8" standalone="no"?>
<svg xmlns="http://www.w3.org/2000/svg" xmlns:xlink="http://www.w3.org/1999/xlink" viewBox="0 0 1200 1200">
    <defs>
        <path id="a" d="m525.02 65.37c33.41-4.67 67.28-6.76 100.98-4.8 37.8 2.09 75.5 7.51 112.04 17.5-45.54 12.62-88.97 32.97-127.47 60.41-55.05 38.93-100.07 91.91-129.61 152.52-26.8 54.56-40.8 115.24-41.24 176.01-0.23 78.1 22.27 156.32 65.09 221.71-48.08-13.62-93.34-36.98-132.43-68.08-49.34-39.13-88.71-90.74-113.29-148.71-38.62-89.44-40.74-193.96-5.69-284.87 1.11-2.64 3.79-4.05 5.89-5.8 65.82-53.76 144.58-91.45 227.66-109.24 12.66-2.37 25.24-5.33 38.07-6.65z"/>
    </defs>

    <use xlink:href="#a" fill="#e0210f"/>
    <use xlink:href="#a" fill="#f66908" transform="rotate(60  600 600)"/>
    <use xlink:href="#a" fill="#efe20f" transform="rotate(120 600 600)"/>
    <use xlink:href="#a" fill="#3ea60a" transform="rotate(180 600 600)"/>
    <use xlink:href="#a" fill="#0c2dd1" transform="rotate(240 600 600)"/>
    <use xlink:href="#a" fill="#6a2d66" transform="rotate(300 600 600)"/>
</svg>
