<svg width="106" height="64" viewBox="0 0 106 64" fill="none" xmlns="http://www.w3.org/2000/svg">
<rect width="105.244" height="64" fill="black"/>
<path d="M23.2293 25.6139V31.2886H12.9552V10.6507H23.2293V19.9691H23.8864L25.1706 10.6507H35.624L31.9802 20.9547L35.624 31.2886H25.1109L23.8864 25.6139H23.2293Z" fill="white"/>
<path d="M37.4983 31.2886V10.6507H47.7725V31.2886H37.4983Z" fill="white"/>
<path d="M50.1123 10.6507H59.2515L61.1331 16.8032V10.6507H70.3321V31.2886H61.1331L59.5502 25.2555V31.2886H50.1123V10.6507Z" fill="white"/>
<path d="M84.0514 19.9691V23.6128H85.246V21.552L92.2945 21.2832V31.2886C90.1641 31.4678 87.2969 31.5574 83.6929 31.5574C80.1089 31.5574 77.3712 30.6514 75.4796 28.8395C73.608 27.0276 72.6722 24.3396 72.6722 20.7755C72.6722 17.2114 73.598 14.5931 75.4498 12.9206C77.3015 11.248 80.0592 10.4118 83.7228 10.4118C85.1763 10.4118 86.6 10.4815 87.9937 10.6208C89.3875 10.7602 90.4229 10.8996 91.0999 11.039L92.0855 11.248V19.9691H84.0514Z" fill="white"/>
<path d="M12.5768 33.9496H22.3318C25.3403 33.9496 27.6372 34.6702 29.2225 36.1113C30.8258 37.5525 31.6274 39.9035 31.6274 43.1641C31.6274 49.4693 28.4028 52.6219 21.9535 52.6219H12.5768V33.9496ZM21.6562 41.813V46.4879H22.4129C22.629 46.4879 22.8092 46.4158 22.9533 46.2717C23.1154 46.1276 23.1965 45.9384 23.1965 45.7042V42.5696C23.1965 42.3535 23.1154 42.1733 22.9533 42.0292C22.8092 41.8851 22.629 41.813 22.4129 41.813H21.6562Z" fill="white"/>
<path d="M44.1311 33.9496H53.0214V44.3261C53.0214 47.2445 52.2738 49.4063 50.7786 50.8114C49.3014 52.1986 46.9414 52.8921 43.6988 52.8921H42.9962C39.7715 52.8921 37.4116 52.1896 35.9164 50.7844C34.4392 49.3792 33.7006 47.2265 33.7006 44.3261V33.9496H42.5638V45.3259C42.5638 45.5601 42.6359 45.7493 42.78 45.8934C42.9241 46.0195 43.1043 46.0825 43.3205 46.0825C43.5547 46.0825 43.7438 46.0105 43.8879 45.8664C44.0501 45.7222 44.1311 45.5421 44.1311 45.3259V33.9496Z" fill="white"/>
<path d="M64.4102 47.4877V52.6219H55.1146V33.9496H64.4102V42.3805H65.0047L66.1667 33.9496H75.6245L72.3277 43.2722L75.6245 52.6219H66.1126L65.0047 47.4877H64.4102Z" fill="white"/>
<path d="M77.3203 33.9496H92.4527V41.813H86.6159V42.8939H92.4527V44.5963H86.6159V45.6772H92.6959V52.6219H77.3203V33.9496Z" fill="white"/>
</svg>
