<svg width="16" height="16" viewBox="0 0 16 16" fill="none" xmlns="http://www.w3.org/2000/svg">
<path d="M0.20296 13.9003H0C0 13.2576 0.315715 11.5568 0.947146 8.79778C1.57858 6.03878 1.89429 4.51524 1.89429 4.22715C1.89429 3.76177 1.71952 3.31856 1.36998 2.89751L1.20085 2.68144L1.25159 2.34903C1.91684 2.12742 3.1346 2.01662 4.90486 2.01662C5.08527 2.41551 5.18111 2.88643 5.19239 3.42936C6.51163 2.47645 7.63918 2 8.57505 2C9.64623 2 10.2833 2.45429 10.4863 3.36288C11.7604 2.45429 12.871 2 13.8182 2C14.4609 2 14.9852 2.17729 15.3911 2.53186C15.797 2.87535 16 3.3795 16 4.04432C16 4.69806 15.7519 5.95014 15.2558 7.80055C14.771 9.63989 14.5285 10.9474 14.5285 11.723C14.5285 12.0111 14.5906 12.1551 14.7146 12.1551C14.9514 12.1551 15.2389 12.0886 15.5772 11.9557L15.9323 12.903C14.8837 13.6343 13.8464 14 12.8203 14C12.3354 14 11.9464 13.856 11.6533 13.5679C11.3601 13.2798 11.2135 12.8587 11.2135 12.3047C11.2135 11.7396 11.4447 10.5208 11.907 8.6482C12.3806 6.76454 12.6173 5.61773 12.6173 5.20776C12.6173 4.79778 12.5666 4.52632 12.4651 4.39335C12.3636 4.24931 12.1663 4.17729 11.8732 4.17729C11.58 4.17729 11.1177 4.38781 10.4863 4.80886C10.4073 5.31856 10.2326 6.14404 9.96195 7.28532C9.25159 10.1994 8.89641 12.2659 8.89641 13.4848C8.3439 13.7729 7.39112 13.9169 6.03806 13.9169H5.5814C5.5814 12.8975 5.84637 11.3019 6.37632 9.13019C6.90627 6.95845 7.17125 5.65651 7.17125 5.22438C7.17125 4.79224 7.12051 4.5097 7.01903 4.37673C6.92882 4.24377 6.7315 4.17729 6.42706 4.17729C6.1339 4.17729 5.66596 4.39335 5.02326 4.82548C4.92178 5.3795 4.71318 6.29917 4.39746 7.58449C3.66455 10.5873 3.2981 12.5485 3.2981 13.4681C2.80197 13.7562 1.77026 13.9003 0.20296 13.9003Z" fill="#00E600"/>
</svg>
