<svg width="128" height="128" viewBox="0 0 128 128" fill="none" xmlns="http://www.w3.org/2000/svg">
<path d="M94.5975 29.3953C89.2745 26.8273 56.5351 71.1266 50.2657 69.0939C44.4545 67.2115 60.1761 28.1744 60.2364 28C60.2364 28 -0.41382 62.3401 0.00212975 79.8109C0.375881 95.4053 29.9686 100 29.9686 100C8.57431 79.1433 34.6766 66.2312 44.2796 58.9302C44.5493 58.7252 45.365 58.6706 45.1477 58.9302C44.6091 59.5737 28.8111 88.002 41.5247 93.0177C51.5799 96.987 76.7418 67.9873 82.0587 59.5316C82.2351 59.251 83.056 59.2348 82.9087 59.5316C75.0237 75.4206 68.9051 87.6532 71.7383 94.0401C73.0404 96.981 76.0907 97.4801 80.6601 97.011C95.8935 95.4354 123.057 76.5693 128 71.3973C128 71.3973 93.7173 87.7193 86.0012 81.3084C81.0339 77.1888 98.7148 31.3859 94.5975 29.3953Z" fill="#826B57"/>
</svg>
