<svg width="48" height="48" viewBox="0 0 48 48" fill="none" xmlns="http://www.w3.org/2000/svg">
<g clip-path="url(#clip0_2143_57)">
<path d="M35.314 35.314L38.142 38.142M12.686 12.686L9.86 9.86M30 38V40M10 18H8M38 30H40M18 10V8" stroke="white" stroke-width="3" stroke-linecap="round"/>
<path opacity="0.5" d="M25.6593 31.4118C19.9657 30.1886 17.3213 28.5776 13.4118 24.3407L9.34075 31.392C7.92654 33.8415 7.21943 35.0663 7.54105 36.2666C7.86267 37.4669 9.08741 38.174 11.5369 39.5882L13.3921 40.6593C15.8415 42.0735 17.0663 42.7806 18.2666 42.459C19.4669 42.1373 20.174 40.9126 21.5882 38.4631L25.6593 31.4118Z" stroke="white" stroke-width="3" stroke-linejoin="round"/>
<path opacity="0.5" d="M24.3407 13.4118C28.6598 17.3179 30.1445 20.0353 31.4118 25.6592L38.4631 21.5882C40.9126 20.174 42.1373 19.4669 42.4589 18.2666C42.7806 17.0663 42.0735 15.8415 40.6592 13.392L39.5882 11.5369C38.174 9.08739 37.4668 7.86265 36.2665 7.54103C35.0663 7.21941 33.8415 7.92652 31.392 9.34073L24.3407 13.4118Z" stroke="white" stroke-width="3" stroke-linejoin="round"/>
</g>
<defs>
<clipPath id="clip0_2143_57">
<rect width="48" height="48" fill="white"/>
</clipPath>
</defs>
</svg>
