<svg width="48" height="48" viewBox="0 0 48 48" fill="none" xmlns="http://www.w3.org/2000/svg">
<path opacity="0.5" d="M24 32C27.3137 32 30 29.3137 30 26C30 22.6863 27.3137 20 24 20C20.6863 20 18 22.6863 18 26C18 29.3137 20.6863 32 24 32Z" stroke="white" stroke-width="3"/>
<path d="M19.556 42H28.444C34.686 42 37.808 42 40.05 40.53C41.0176 39.8963 41.8509 39.078 42.502 38.122C44 35.922 44 32.856 44 26.728C44 20.6 44 17.534 42.502 15.334C41.8509 14.378 41.0176 13.5597 40.05 12.926C38.61 11.98 36.806 11.642 34.044 11.522C32.726 11.522 31.592 10.542 31.334 9.272C31.1368 8.34174 30.6245 7.50807 29.8837 6.9119C29.1429 6.31573 28.2189 5.99362 27.268 6H20.732C18.756 6 17.054 7.37 16.666 9.272C16.408 10.542 15.274 11.522 13.956 11.522C11.196 11.642 9.392 11.982 7.95 12.926C6.98307 13.5599 6.15055 14.3782 5.5 15.334C4 17.534 4 20.598 4 26.728C4 32.858 4 35.92 5.498 38.122C6.146 39.074 6.978 39.892 7.95 40.53C10.192 42 13.314 42 19.556 42Z" stroke="white" stroke-width="3"/>
<path opacity="0.5" d="M38 20H36" stroke="white" stroke-width="3" stroke-linecap="round"/>
</svg>
