<svg width="48" height="48" viewBox="0 0 48 48" fill="none" xmlns="http://www.w3.org/2000/svg">
<path opacity="0.5" d="M6 44H42" stroke="white" stroke-width="3" stroke-linecap="round" stroke-linejoin="round"/>
<path d="M6 22C6 20.114 6 19.172 6.586 18.586C7.172 18 8.114 18 10 18C11.886 18 12.828 18 13.414 18.586C14 19.172 14 20.114 14 22V34C14 35.886 14 36.828 13.414 37.414C12.828 38 11.886 38 10 38C8.114 38 7.172 38 6.586 37.414C6 36.828 6 35.886 6 34V22ZM20 14C20 12.114 20 11.172 20.586 10.586C21.172 10 22.114 10 24 10C25.886 10 26.828 10 27.414 10.586C28 11.172 28 12.114 28 14V34C28 35.886 28 36.828 27.414 37.414C26.828 38 25.886 38 24 38C22.114 38 21.172 38 20.586 37.414C20 36.828 20 35.886 20 34V14ZM34 8C34 6.114 34 5.172 34.586 4.586C35.172 4 36.114 4 38 4C39.886 4 40.828 4 41.414 4.586C42 5.172 42 6.114 42 8V34C42 35.886 42 36.828 41.414 37.414C40.828 38 39.886 38 38 38C36.114 38 35.172 38 34.586 37.414C34 36.828 34 35.886 34 34V8Z" stroke="white" stroke-width="3"/>
</svg>
