<svg width="24" height="24" viewBox="0 0 24 24" fill="none" xmlns="http://www.w3.org/2000/svg">
<mask id="mask0_2015_3383" style="mask-type:luminance" maskUnits="userSpaceOnUse" x="1" y="1" width="22" height="22">
<path d="M11.5 21C16.7467 21 21 16.7467 21 11.5C21 6.25329 16.7467 2 11.5 2C6.25329 2 2 6.25329 2 11.5C2 16.7467 6.25329 21 11.5 21Z" stroke="#808080" stroke-width="1.5"/>
<path d="M11.5 15.5C10.7044 15.5 9.94129 15.1839 9.37868 14.6213C8.81607 14.0587 8.5 13.2956 8.5 12.5V10.5M11.5 15.5C12.2956 15.5 13.0587 15.1839 13.6213 14.6213C14.1839 14.0587 14.5 13.2956 14.5 12.5V10.5M11.5 15.5V10.5M8.5 10.5C8.5 9.70435 8.81607 8.94129 9.37868 8.37868C9.94129 7.81607 10.7044 7.5 11.5 7.5C12.2956 7.5 13.0587 7.81607 13.6213 8.37868C14.1839 8.94129 14.5 9.70435 14.5 10.5M8.5 10.5H14.5M14.572 11.5H16M7 11.5H8.5M14.5 14L15.5 14.5M8.5 14L7.5 14.5M14.5 9L15.5 8.5M8.5 9L7.5 8.5M20 20L22 22" stroke="white" stroke-width="1.5" stroke-linecap="round"/>
</mask>
<g mask="url(#mask0_2015_3383)">
<path d="M0 0H24V24H0V0Z" fill="black"/>
</g>
</svg>
