<svg width="48" height="48" viewBox="0 0 48 48" fill="none" xmlns="http://www.w3.org/2000/svg">
<path d="M6 20C6 12.458 6 8.686 8.344 6.344C10.688 4.002 14.458 4 22 4H26C33.542 4 37.314 4 39.656 6.344C41.998 8.688 42 12.458 42 20V28C42 35.542 42 39.314 39.656 41.656C37.312 43.998 33.542 44 26 44H22C14.458 44 10.686 44 8.344 41.656C6.002 39.312 6 35.542 6 28V20Z" stroke="white" stroke-width="3"/>
<path opacity="0.5" d="M16 24H32M16 16H32M16 32H26" stroke="white" stroke-width="3" stroke-linecap="round"/>
</svg>
