<svg width="20" height="20" viewBox="0 0 20 20" fill="none" xmlns="http://www.w3.org/2000/svg">
<path d="M16.6667 10.9258C16.6667 16.8517 11.63 18.3333 9.11083 18.3333C6.90833 18.3333 2.5 16.8517 2.5 10.9258C2.5 8.6075 3.7175 7.05083 4.88333 6.1625C5.53167 5.6675 6.35833 6.16 6.44167 6.97167L6.51333 7.67C6.60083 8.52 7.37417 9.2175 8.09083 8.75167C9.495 7.83917 10 5.64583 10 4.44417V4.175C10 2.98333 11.2033 2.21667 12.1683 2.915C14.3042 4.45833 16.6667 7.15333 16.6667 10.925V10.9258Z" stroke="#FFBB99" stroke-width="1.25"/>
<path opacity="0.5" d="M6.66666 15.3708C6.66666 17.7408 8.74083 18.3333 9.7775 18.3333C10.6858 18.3333 12.5 17.7408 12.5 15.3708C12.5 14.4525 12.0083 13.8333 11.5333 13.4758C11.2017 13.2267 10.7358 13.4508 10.6217 13.85C10.4733 14.37 9.93583 14.6967 9.66166 14.23C9.41166 13.8033 9.41166 13.1633 9.41166 12.7775C9.41166 12.2475 8.87833 11.9042 8.44916 12.2158C7.58833 12.8408 6.66666 13.9 6.66666 15.3708Z" stroke="#FFBB99" stroke-width="1.25"/>
</svg>
