<svg width="24" height="24" viewBox="0 0 24 24" fill="none" xmlns="http://www.w3.org/2000/svg">
<path d="M9 11.657V19C9 19.932 9 20.398 9.152 20.765C9.25251 21.0078 9.3999 21.2284 9.58572 21.4143C9.77155 21.6001 9.99218 21.7475 10.235 21.848C10.602 22 11.068 22 12 22C12.932 22 13.398 22 13.765 21.848C14.0078 21.7475 14.2284 21.6001 14.4143 21.4143C14.6001 21.2284 14.7475 21.0078 14.848 20.765C15 20.398 15 19.932 15 19V11.657C15 10.839 15 10.431 15.152 10.063C15.305 9.696 15.594 9.406 16.172 8.828L19.414 5.586C19.704 5.296 19.848 5.152 19.924 4.968C20 4.785 20 4.58 20 4.172V4C20 3.057 20 2.586 19.707 2.293C19.414 2 18.943 2 18 2H6C5.057 2 4.586 2 4.293 2.293C4 2.586 4 3.057 4 4V4.172C4 4.58 4 4.785 4.076 4.968C4.152 5.151 4.296 5.297 4.586 5.586L7.828 8.828C8.406 9.406 8.696 9.696 8.848 10.063C9 10.43 9 10.84 9 11.657Z" stroke="black" stroke-width="1.5" stroke-linecap="round"/>
<path opacity="0.5" d="M15 10H9M12 13V15M4.5 5H19.5" stroke="black" stroke-width="1.5" stroke-linecap="round"/>
</svg>
