<svg width="48" height="48" viewBox="0 0 48 48" fill="none" xmlns="http://www.w3.org/2000/svg">
<path d="M12.4194 7.90606C15.0234 5.30202 16.3254 4 17.9425 4C19.561 4 20.863 5.30202 23.4655 7.90606L30.0956 14.5347C32.6967 17.1372 34.0002 18.4392 34.0002 20.0577C34.0002 21.6763 32.6982 22.9768 30.0941 25.5808C27.4901 28.1848 26.1881 29.4869 24.5711 29.4869C22.9525 29.4869 21.6505 28.1848 19.048 25.5808L12.4179 18.9522C9.81685 16.3497 8.51483 15.0477 8.51483 13.4291C8.51483 11.8106 9.81535 10.5101 12.4194 7.90606Z" stroke="white" stroke-width="3"/>
<path opacity="0.5" d="M17.9423 24.4753L9.65767 32.7614C9.14317 33.2759 8.88666 33.5324 8.61966 33.6869C8.26357 33.8928 7.85949 34.0013 7.44814 34.0013C7.03679 34.0013 6.63271 33.8928 6.27663 33.6869C6.00812 33.5324 5.75162 33.2759 5.23861 32.7614C4.7241 32.2484 4.4676 31.9919 4.3131 31.7249C4.10688 31.3686 3.99829 30.9642 3.99829 30.5526C3.99829 30.141 4.10688 29.7366 4.3131 29.3803C4.4676 29.1133 4.7241 28.8568 5.23861 28.3423L13.5232 20.0577M28.99 13.4291L29.542 12.8771C30.055 12.3626 30.313 12.1061 30.4675 11.8391C30.6734 11.483 30.7818 11.0789 30.7818 10.6676C30.7818 10.2562 30.6734 9.85214 30.4675 9.49605C30.313 9.22755 30.055 8.97105 29.542 8.45804C29.029 7.94353 28.771 7.68703 28.5039 7.53253C28.1479 7.32659 27.7438 7.21815 27.3324 7.21815C26.9211 7.21815 26.517 7.32659 26.1609 7.53253C25.8939 7.68703 25.6359 7.94353 25.1229 8.45804L24.5709 9.01005" stroke="white" stroke-width="3"/>
<path d="M24 44H44" stroke="white" stroke-width="3" stroke-linecap="round"/>
<path opacity="0.5" d="M27.5 42.5L27.5 40C27.5 39.4477 27.9477 39 28.5 39H39.5C40.0523 39 40.5 39.4477 40.5 40L40.5 42.5" stroke="white" stroke-width="3"/>
</svg>
