<svg width="24" height="24" viewBox="0 0 24 24" fill="none" xmlns="http://www.w3.org/2000/svg">
<path d="M3 14C3 16.828 3 18.243 3.879 19.121C4.757 20 6.172 20 9 20H15C17.828 20 19.243 20 20.121 19.121C21 18.243 21 16.828 21 14V8" stroke="black" stroke-width="1.5"/>
<path d="M21 8C21 5.172 21 3.757 20.121 2.879C19.243 2 17.828 2 15 2H9C6.172 2 4.757 2 3.879 2.879C3 3.757 3 5.172 3 8V14" stroke="black" stroke-width="1.5"/>
<path d="M12 16C14.7614 16 17 13.7614 17 11C17 8.23858 14.7614 6 12 6C9.23858 6 7 8.23858 7 11C7 13.7614 9.23858 16 12 16Z" stroke="black" stroke-width="1.5"/>
<path opacity="0.5" d="M10 11C10 11.3956 10.1173 11.7822 10.3371 12.1111C10.5568 12.44 10.8692 12.6964 11.2346 12.8478C11.6001 12.9991 12.0022 13.0387 12.3902 12.9616C12.7781 12.8844 13.1345 12.6939 13.4142 12.4142C13.6939 12.1345 13.8844 11.7781 13.9616 11.3902C14.0387 11.0022 13.9991 10.6001 13.8478 10.2346C13.6964 9.86918 13.44 9.55682 13.1111 9.33706C12.7822 9.1173 12.3956 9 12 9" stroke="black" stroke-width="1.5" stroke-linecap="round"/>
<path opacity="0.5" d="M12.75 22.5C12.75 22.9142 12.4142 23.25 12 23.25C11.5858 23.25 11.25 22.9142 11.25 22.5V21H12.75V22.5Z" fill="black"/>
<path opacity="0.5" d="M18.75 22C18.75 22.4142 18.4142 22.75 18 22.75C17.5858 22.75 17.25 22.4142 17.25 22V20H18.75V22Z" fill="black"/>
<path opacity="0.5" d="M6.75 22C6.75 22.4142 6.41421 22.75 6 22.75C5.58579 22.75 5.25 22.4142 5.25 22V20H6.75V22Z" fill="black"/>
</svg>
