<svg width="24" height="24" viewBox="0 0 24 24" fill="none" xmlns="http://www.w3.org/2000/svg">
<path d="M12.005 14.75C12.2039 14.75 12.3947 14.671 12.5353 14.5303C12.676 14.3897 12.755 14.1989 12.755 14C12.755 13.8011 12.676 13.6103 12.5353 13.4697C12.3947 13.329 12.2039 13.25 12.005 13.25V14.75ZM8.5 2.75H15.5V1.25H8.5V2.75ZM15.5 6.25H8.5V7.75H15.5V6.25ZM8.5 6.25C8.019 6.25 7.708 6.25 7.473 6.228C7.248 6.208 7.166 6.173 7.125 6.15L6.375 7.449C6.682 7.626 7.008 7.692 7.337 7.722C7.657 7.751 8.047 7.75 8.5 7.75V6.25ZM5.25 4.5C5.25 4.954 5.25 5.344 5.278 5.663C5.308 5.992 5.374 6.318 5.551 6.625L6.851 5.875C6.827 5.835 6.792 5.752 6.772 5.527C6.75114 5.18509 6.7438 4.84249 6.75 4.5H5.25ZM7.125 6.15C7.01075 6.08411 6.9169 5.98926 6.851 5.875L5.551 6.625C5.749 6.967 6.033 7.251 6.375 7.449L7.125 6.15ZM17.25 4.5C17.25 4.981 17.25 5.292 17.228 5.527C17.208 5.752 17.173 5.834 17.149 5.875L18.449 6.625C18.626 6.318 18.692 5.992 18.722 5.663C18.751 5.343 18.75 4.953 18.75 4.5H17.25ZM15.5 7.75C15.954 7.75 16.344 7.75 16.663 7.722C16.992 7.692 17.318 7.626 17.625 7.449L16.875 6.149C16.835 6.173 16.752 6.208 16.527 6.228C16.1851 6.24887 15.8425 6.2562 15.5 6.25V7.75ZM17.149 5.875C17.0831 5.98926 16.9893 6.08311 16.875 6.149L17.625 7.449C17.9673 7.25146 18.2515 6.96727 18.449 6.625L17.149 5.875ZM15.5 2.75C15.981 2.75 16.292 2.75 16.527 2.772C16.752 2.792 16.834 2.827 16.875 2.85L17.625 1.551C17.318 1.374 16.992 1.308 16.663 1.278C16.343 1.249 15.953 1.25 15.5 1.25V2.75ZM18.75 4.5C18.75 4.046 18.75 3.656 18.722 3.337C18.692 3.008 18.626 2.682 18.449 2.375L17.149 3.125C17.173 3.165 17.207 3.248 17.228 3.473C17.249 3.708 17.25 4.019 17.25 4.5H18.75ZM16.875 2.85C16.9889 2.91604 17.0834 3.01088 17.149 3.125L18.449 2.375C18.2515 2.03274 17.9673 1.74854 17.625 1.551L16.875 2.85ZM8.5 1.25C8.046 1.25 7.656 1.25 7.337 1.278C7.008 1.308 6.682 1.374 6.375 1.551L7.125 2.851C7.165 2.827 7.248 2.792 7.473 2.772C7.708 2.751 8.019 2.75 8.5 2.75V1.25ZM6.75 4.5C6.75 4.019 6.75 3.708 6.772 3.473C6.792 3.248 6.827 3.166 6.85 3.125L5.551 2.375C5.374 2.682 5.308 3.008 5.278 3.337C5.249 3.657 5.25 4.047 5.25 4.5H6.75ZM6.375 1.551C6.03274 1.74854 5.74854 2.03274 5.551 2.375L6.85 3.125C6.91562 3.01088 7.01112 2.91604 7.125 2.85L6.375 1.551ZM10.75 20V16H9.25V20H10.75ZM13.25 16V20H14.75V16H13.25ZM13.25 20C13.25 20.493 13.248 20.787 13.22 20.997C13.2137 21.0586 13.1992 21.1192 13.177 21.177L14.237 22.237C14.547 21.928 14.659 21.553 14.707 21.197C14.752 20.863 14.75 20.45 14.75 20H13.25ZM12 22.75C12.45 22.75 12.863 22.752 13.197 22.707C13.553 22.659 13.928 22.547 14.237 22.237L13.177 21.177L13.174 21.178L13.164 21.183C13.1101 21.2021 13.054 21.2145 12.997 21.22C12.787 21.248 12.493 21.25 12 21.25V22.75ZM12 14.75C12.493 14.75 12.787 14.752 12.997 14.78C13.0586 14.7863 13.1192 14.8008 13.177 14.823L14.237 13.763C13.928 13.453 13.553 13.341 13.197 13.293C12.863 13.248 12.45 13.25 12 13.25V14.75ZM14.75 16C14.75 15.55 14.752 15.137 14.707 14.803C14.659 14.447 14.547 14.072 14.237 13.763L13.177 14.823L13.178 14.826L13.183 14.836C13.192 14.858 13.207 14.906 13.22 15.003C13.248 15.213 13.25 15.507 13.25 16H14.75ZM10.75 16C10.75 15.507 10.752 15.213 10.78 15.003C10.7863 14.9414 10.8008 14.8808 10.823 14.823L9.763 13.763C9.453 14.072 9.341 14.447 9.293 14.803C9.248 15.137 9.25 15.55 9.25 16H10.75ZM12 13.25C11.55 13.25 11.137 13.248 10.803 13.293C10.447 13.341 10.072 13.453 9.763 13.763L10.823 14.823L10.826 14.822L10.836 14.817C10.8899 14.7979 10.946 14.7855 11.003 14.78C11.213 14.752 11.507 14.75 12 14.75V13.25ZM9.25 20C9.25 20.45 9.248 20.863 9.293 21.197C9.341 21.553 9.453 21.928 9.763 22.237L10.823 21.177L10.822 21.174L10.817 21.164C10.7979 21.1101 10.7855 21.054 10.78 20.997C10.752 20.787 10.75 20.493 10.75 20H9.25ZM12 21.25C11.507 21.25 11.213 21.248 11.003 21.22C10.9414 21.2137 10.8808 21.1992 10.823 21.177L9.763 22.237C10.072 22.547 10.447 22.659 10.803 22.707C11.137 22.752 11.55 22.75 12 22.75V21.25ZM12 14.75H12.005V13.25H12V14.75Z" fill="black"/>
<path opacity="0.5" d="M5.5 3.74999C5.30109 3.74999 5.11032 3.82901 4.96967 3.96966C4.82902 4.11032 4.75 4.30108 4.75 4.49999C4.75 4.69891 4.82902 4.88967 4.96967 5.03032C5.11032 5.17098 5.30109 5.24999 5.5 5.24999V3.74999ZM6 3.74999H5.5V5.24999H6V3.74999ZM11.255 13.988C11.2534 14.0865 11.2711 14.1843 11.3073 14.276C11.3435 14.3676 11.3973 14.4512 11.4658 14.522C11.5343 14.5928 11.6161 14.6494 11.7064 14.6886C11.7968 14.7278 11.894 14.7489 11.9925 14.7505C12.091 14.7521 12.1888 14.7344 12.2805 14.6982C12.3721 14.662 12.4557 14.6081 12.5265 14.5397C12.5973 14.4712 12.6539 14.3894 12.6931 14.2991C12.7323 14.2087 12.7534 14.1115 12.755 14.013L11.255 13.988ZM15.518 11.732L19.595 11.12L19.372 9.63699L15.296 10.248L15.518 11.732ZM19.045 3.75099H18V5.25099H19.045V3.75099ZM22.75 7.45599C22.75 7.02099 22.75 6.65899 22.731 6.36199C22.72 6.06537 22.662 5.77138 22.559 5.49299L21.163 6.04399C21.193 6.11699 21.219 6.22999 21.234 6.45999C21.25 6.69599 21.25 7.00099 21.25 7.45599H22.75ZM19.045 5.25099C19.5 5.25099 19.805 5.24999 20.041 5.26599C20.271 5.28099 20.384 5.30799 20.458 5.33599L21.008 3.94099C20.7293 3.83791 20.436 3.77985 20.139 3.76899C19.842 3.74899 19.48 3.75099 19.045 3.75099V5.25099ZM22.559 5.49299C22.4208 5.1417 22.2118 4.82261 21.945 4.55561C21.6782 4.2886 21.3592 4.07938 21.008 3.94099L20.458 5.33799C20.781 5.46499 21.036 5.71899 21.163 6.04199L22.559 5.49299ZM19.595 11.12C20.303 11.014 20.846 10.942 21.291 10.706L20.587 9.38099C20.426 9.46699 20.201 9.51099 19.373 9.63599L19.595 11.12ZM21.25 7.45599C21.25 8.29299 21.24 8.52199 21.179 8.69399L22.593 9.19499C22.761 8.71999 22.75 8.17299 22.75 7.45599H21.25ZM21.291 10.706C21.8996 10.3827 22.3636 9.84276 22.593 9.19299L21.179 8.69299C21.0748 8.9884 20.8636 9.23393 20.587 9.38099L21.291 10.706ZM15.296 10.247C14.502 10.367 13.838 10.465 13.315 10.612C12.772 10.764 12.291 10.992 11.916 11.428L13.053 12.407C13.163 12.28 13.33 12.165 13.721 12.056C14.132 11.94 14.686 11.856 15.518 11.731L15.296 10.247ZM12.755 14.013C12.773 12.948 12.871 12.617 13.053 12.407L11.916 11.427C11.336 12.102 11.272 12.98 11.255 13.988L12.755 14.013Z" fill="black"/>
</svg>
