<svg width="48" height="48" viewBox="0 0 48 48" fill="none" xmlns="http://www.w3.org/2000/svg">
<path d="M24 34V38.09C24 40.831 24 42.2014 23.1707 43.0708C23.1382 43.1049 23.1049 43.1382 23.0708 43.1707C22.2014 44 20.831 44 18.09 44H9.91C7.16904 44 5.79857 44 4.92925 43.1707C4.89515 43.1382 4.86182 43.1049 4.82929 43.0708C4 42.2014 4 40.831 4 38.09V19.91C4 17.169 4 15.7986 4.82929 14.9292C4.86182 14.8951 4.89515 14.8618 4.92925 14.8293C5.79857 14 7.16904 14 9.91 14H18.09C20.831 14 22.2014 14 23.0708 14.8293C23.1049 14.8618 23.1382 14.8951 23.1707 14.9292C24 15.7986 24 17.169 24 19.91V24" stroke="white" stroke-width="3" stroke-linecap="round" stroke-linejoin="round"/>
<path opacity="0.5" d="M14 12.5V12.5C14 9.22657 14 7.58985 14.7368 6.38751C15.1491 5.71473 15.7147 5.14908 16.3875 4.7368C17.5899 4 19.2266 4 22.5 4H34.15C38.7183 4 41.0024 4 42.4513 5.38215C42.5081 5.43637 42.5636 5.49191 42.6178 5.54874C44 6.99761 44 9.28174 44 13.85V29.15C44 33.7183 44 36.0024 42.6178 37.4513C42.5636 37.5081 42.5081 37.5636 42.4513 37.6178C41.0024 39 38.7183 39 34.15 39H25.5" stroke="white" stroke-width="3" stroke-linejoin="round"/>
</svg>
