<svg width="48" height="48" viewBox="0 0 48 48" fill="none" xmlns="http://www.w3.org/2000/svg">
<path opacity="0.5" d="M24 44C35.0457 44 44 35.0457 44 24C44 12.9543 35.0457 4 24 4C12.9543 4 4 12.9543 4 24C4 35.0457 12.9543 44 24 44Z" stroke="white" stroke-width="3"/>
<path d="M27.776 19.87C29.926 21.624 31 22.5 31 24C31 25.5 29.926 26.376 27.776 28.13C27.182 28.614 26.594 29.07 26.052 29.45C25.578 29.784 25.04 30.128 24.484 30.466C22.338 31.77 21.266 32.422 20.304 31.7C19.344 30.98 19.256 29.468 19.08 26.444C19.032 25.59 19 24.752 19 24C19 23.248 19.032 22.41 19.08 21.556C19.256 18.532 19.344 17.022 20.304 16.3C21.266 15.578 22.34 16.23 24.484 17.534C25.04 17.872 25.578 18.216 26.052 18.55C26.592 18.93 27.182 19.386 27.776 19.87Z" stroke="white" stroke-width="3"/>
</svg>
