<svg width="48" height="48" viewBox="0 0 48 48" fill="none" xmlns="http://www.w3.org/2000/svg">
<path opacity="0.5" d="M4 24C4 14.572 4 9.858 6.928 6.928C9.86 4 14.572 4 24 4C33.428 4 38.142 4 41.07 6.928C44 9.86 44 14.572 44 24C44 33.428 44 38.142 41.07 41.07C38.144 44 33.428 44 24 44C14.572 44 9.858 44 6.928 41.07C4 38.144 4 33.428 4 24Z" stroke="black" stroke-width="3"/>
<path d="M20.25 17.75C20.2501 17.0933 20.4226 16.4481 20.7504 15.879C21.0781 15.3099 21.5496 14.8369 22.1176 14.5072C22.6855 14.1776 23.3301 14.0028 23.9869 14.0005C24.6436 13.9982 25.2894 14.1684 25.8597 14.4941C26.4299 14.8198 26.9047 15.2895 27.2364 15.8563C27.5681 16.423 27.7452 17.067 27.7499 17.7237C27.7546 18.3804 27.5867 19.0268 27.2632 19.5983C26.9396 20.1698 26.4716 20.6462 25.906 20.98C24.956 21.542 24 22.396 24 23.5V26" stroke="black" stroke-width="3" stroke-linecap="round"/>
<path d="M24 34C25.1046 34 26 33.1046 26 32C26 30.8954 25.1046 30 24 30C22.8954 30 22 30.8954 22 32C22 33.1046 22.8954 34 24 34Z" fill="black"/>
</svg>
