<svg width="48" height="48" viewBox="0 0 48 48" fill="none" xmlns="http://www.w3.org/2000/svg">
<path d="M4 35C4 33.13 4 32.196 4.402 31.5C4.66529 31.044 5.04398 30.6653 5.5 30.402C6.196 30 7.13 30 9 30C10.87 30 11.804 30 12.5 30.402C12.956 30.6653 13.3347 31.044 13.598 31.5C14 32.196 14 33.13 14 35C14 36.87 14 37.804 13.598 38.5C13.3347 38.956 12.956 39.3347 12.5 39.598C11.804 40 10.87 40 9 40C7.13 40 6.196 40 5.5 39.598C5.04398 39.3347 4.66529 38.956 4.402 38.5C4 37.804 4 36.87 4 35Z" stroke="white" stroke-width="3"/>
<path opacity="0.5" d="M19 35C19 33.13 19 32.196 19.402 31.5C19.6653 31.044 20.044 30.6653 20.5 30.402C21.196 30 22.13 30 24 30C25.87 30 26.804 30 27.5 30.402C27.956 30.6653 28.3347 31.044 28.598 31.5C29 32.196 29 33.13 29 35C29 36.87 29 37.804 28.598 38.5C28.3347 38.956 27.956 39.3347 27.5 39.598C26.804 40 25.87 40 24 40C22.13 40 21.196 40 20.5 39.598C20.044 39.3347 19.6653 38.956 19.402 38.5C19 37.804 19 36.87 19 35Z" stroke="white" stroke-width="3"/>
<path opacity="0.7" d="M34 35C34 33.13 34 32.196 34.402 31.5C34.6653 31.044 35.044 30.6653 35.5 30.402C36.196 30 37.13 30 39 30C40.87 30 41.804 30 42.5 30.402C42.956 30.6653 43.3347 31.044 43.598 31.5C44 32.196 44 33.13 44 35C44 36.87 44 37.804 43.598 38.5C43.3347 38.956 42.956 39.3347 42.5 39.598C41.804 40 40.87 40 39 40C37.13 40 36.196 40 35.5 39.598C35.044 39.3347 34.6653 38.956 34.402 38.5C34 37.804 34 36.87 34 35Z" stroke="white" stroke-width="3"/>
<path d="M9 30V18C9 13.286 9 10.928 10.464 9.464C11.928 8 14.286 8 19 8H29C33.714 8 36.07 8 37.536 9.464C39.002 10.928 39 13.286 39 18V24M39 24L43 20M39 24L35 20" stroke="white" stroke-width="3" stroke-linecap="round" stroke-linejoin="round"/>
</svg>
