<svg width="24" height="24" viewBox="0 0 24 24" fill="none" xmlns="http://www.w3.org/2000/svg">
<path d="M2 6V18M22 18V15.643C22 13.648 22 12.65 21.72 11.849C21.4718 11.1396 21.0669 10.4953 20.5354 9.96396C20.0039 9.43262 19.3595 9.02794 18.65 8.78C17.85 8.5 16.852 8.5 14.857 8.5C14.059 8.5 13.66 8.5 13.339 8.612C13.0555 8.71124 12.7979 8.87308 12.5855 9.0855C12.3731 9.29792 12.2112 9.55546 12.112 9.839C12 10.16 12 10.56 12 11.357V16M2 16H22" stroke="black" stroke-width="1.5" stroke-linecap="round" stroke-linejoin="round"/>
<path opacity="0.5" d="M9.5 11C9.5 11.663 9.23661 12.2989 8.76777 12.7678C8.29893 13.2366 7.66304 13.5 7 13.5C6.33696 13.5 5.70107 13.2366 5.23223 12.7678C4.76339 12.2989 4.5 11.663 4.5 11C4.5 10.337 4.76339 9.70107 5.23223 9.23223C5.70107 8.76339 6.33696 8.5 7 8.5C7.66304 8.5 8.29893 8.76339 8.76777 9.23223C9.23661 9.70107 9.5 10.337 9.5 11Z" stroke="black" stroke-width="1.5"/>
</svg>
