<svg width="20" height="20" viewBox="0 0 20 20" fill="none" xmlns="http://www.w3.org/2000/svg">
<path d="M7.5 8.33333C9.34095 8.33333 10.8333 6.84095 10.8333 5C10.8333 3.15905 9.34095 1.66667 7.5 1.66667C5.65905 1.66667 4.16666 3.15905 4.16666 5C4.16666 6.84095 5.65905 8.33333 7.5 8.33333Z" stroke="#FFBB99" stroke-width="1.25"/>
<path opacity="0.5" d="M10.4167 3.6175C10.7136 3.17008 11.1468 2.83018 11.6519 2.6481C12.1571 2.46602 12.7075 2.45144 13.2216 2.60653C13.7357 2.76162 14.1863 3.07813 14.5065 3.5092C14.8267 3.94028 14.9996 4.463 14.9996 5C14.9996 5.537 14.8267 6.05972 14.5065 6.4908C14.1863 6.92187 13.7357 7.23838 13.2216 7.39347C12.7075 7.54856 12.1571 7.53398 11.6519 7.3519C11.1468 7.16982 10.7136 6.82992 10.4167 6.3825" stroke="#FFBB99" stroke-width="1.25"/>
<path d="M7.5 17.5C10.7217 17.5 13.3333 16.0076 13.3333 14.1667C13.3333 12.3257 10.7217 10.8333 7.5 10.8333C4.27834 10.8333 1.66666 12.3257 1.66666 14.1667C1.66666 16.0076 4.27834 17.5 7.5 17.5Z" stroke="#FFBB99" stroke-width="1.25"/>
<path opacity="0.5" d="M15 11.6667C16.4617 11.9875 17.5 12.7992 17.5 13.75C17.5 14.6083 16.655 15.3525 15.4167 15.725" stroke="#FFBB99" stroke-width="1.25" stroke-linecap="round"/>
</svg>
