<svg width="48" height="48" viewBox="0 0 48 48" fill="none" xmlns="http://www.w3.org/2000/svg">
<path opacity="0.5" d="M10.624 21.524C16.46 11.174 19.378 6 24 6C28.622 6 31.54 11.174 37.376 21.524L38.104 22.812C42.954 31.412 45.38 35.712 43.188 38.856C40.996 42 35.572 42 24.728 42H23.272C12.428 42 7.00399 42 4.81199 38.856C2.61999 35.712 5.04599 31.412 9.89599 22.812L10.624 21.524Z" stroke="white" stroke-width="3"/>
<path d="M24 16V26" stroke="white" stroke-width="3" stroke-linecap="round"/>
<path d="M24 34C25.1046 34 26 33.1046 26 32C26 30.8954 25.1046 30 24 30C22.8954 30 22 30.8954 22 32C22 33.1046 22.8954 34 24 34Z" fill="white"/>
</svg>
